<svg width="151" height="56" viewBox="0 0 151 56" fill="none" xmlns="http://www.w3.org/2000/svg">
<path d="M8.484 42.74C7.56933 42.74 6.692 42.1987 5.852 41.116C5.03067 40.052 4.368 38.624 3.864 36.832C3.50933 35.5067 3.14533 33.9107 2.772 32.044C2.41733 30.1773 2.09067 28.0773 1.792 25.744C1.512 23.4107 1.30667 20.9 1.176 18.212L5.992 17.988C6.08533 19.724 6.20667 21.4413 6.356 23.14C6.524 24.8387 6.71067 26.444 6.916 27.956C7.12133 29.468 7.336 30.8307 7.56 32.044C7.80267 33.2387 8.036 34.2093 8.26 34.956C8.316 35.124 8.35333 35.2547 8.372 35.348C8.40933 35.4413 8.43733 35.5067 8.456 35.544C8.47467 35.4693 8.50267 35.348 8.54 35.18C8.596 35.012 8.652 34.8347 8.708 34.648C8.988 33.6587 9.296 32.352 9.632 30.728C9.98667 29.104 10.3133 27.284 10.612 25.268C10.9107 23.252 11.144 21.1613 11.312 18.996C11.2933 18.8467 11.284 18.6973 11.284 18.548L16.268 18.52C16.436 21.3387 16.6507 23.7653 16.912 25.8C17.1733 27.8347 17.4533 29.5707 17.752 31.008C18.0693 32.4267 18.3587 33.64 18.62 34.648C18.6387 34.704 18.6573 34.788 18.676 34.9C18.7133 34.9933 18.7413 35.0867 18.76 35.18C18.7973 35.0867 18.8347 34.9747 18.872 34.844C18.9093 34.6947 18.9467 34.536 18.984 34.368C19.208 33.5653 19.432 32.5573 19.656 31.344C19.8987 30.112 20.1227 28.7587 20.328 27.284C20.552 25.8093 20.748 24.288 20.916 22.72C21.1027 21.152 21.2613 19.6307 21.392 18.156H26.32C26.2453 19.388 26.1147 20.704 25.928 22.104C25.76 23.504 25.564 24.9227 25.34 26.36C25.116 27.7973 24.8733 29.188 24.612 30.532C24.3693 31.8573 24.1173 33.08 23.856 34.2C23.6133 35.32 23.3893 36.2533 23.184 37C22.68 38.792 22.036 40.192 21.252 41.2C20.4867 42.208 19.6653 42.712 18.788 42.712C17.8733 42.712 17.0893 42.3293 16.436 41.564C15.8013 40.7987 15.1573 39.5013 14.504 37.672C14.336 37.2053 14.1587 36.6173 13.972 35.908C13.804 35.1987 13.6267 34.4147 13.44 33.556C13.1973 34.6013 12.964 35.544 12.74 36.384C12.5347 37.2053 12.348 37.8773 12.18 38.4C11.8253 39.4827 11.4707 40.3413 11.116 40.976C10.7613 41.6107 10.3787 42.0587 9.968 42.32C9.55733 42.6 9.06267 42.74 8.484 42.74Z" fill="url(#paint0_linear_20_761)"/>
<path d="M28.2354 39V28.472C28.2354 27.8747 28.2167 27.268 28.1794 26.652C28.1607 26.036 28.114 25.4387 28.0394 24.86H31.4274L31.8194 28.724H31.2594C31.446 27.7907 31.754 27.016 32.1834 26.4C32.6314 25.784 33.1727 25.3267 33.8074 25.028C34.442 24.7293 35.1327 24.58 35.8794 24.58C36.2154 24.58 36.486 24.5987 36.6914 24.636C36.8967 24.6547 37.102 24.7013 37.3074 24.776L37.2794 27.856C36.9247 27.7067 36.6167 27.6133 36.3554 27.576C36.1127 27.5387 35.8047 27.52 35.4314 27.52C34.6287 27.52 33.9474 27.688 33.3874 28.024C32.846 28.36 32.4354 28.8267 32.1554 29.424C31.894 30.0213 31.7634 30.7027 31.7634 31.468V39H28.2354ZM43.0788 39.28C41.8468 39.28 40.7642 38.9907 39.8308 38.412C38.8975 37.8147 38.1695 36.9653 37.6468 35.864C37.1242 34.7627 36.8628 33.4467 36.8628 31.916C36.8628 30.3853 37.1242 29.0787 37.6468 27.996C38.1695 26.8947 38.8975 26.0547 39.8308 25.476C40.7642 24.8787 41.8468 24.58 43.0788 24.58C44.2735 24.58 45.3188 24.8787 46.2148 25.476C47.1295 26.0547 47.7362 26.8387 48.0348 27.828H47.7268L48.0348 24.86H51.3948C51.3388 25.4387 51.2828 26.0267 51.2268 26.624C51.1895 27.2213 51.1708 27.8093 51.1708 28.388V39H47.6988L47.6708 36.088H48.0068C47.7082 37.0587 47.1015 37.8333 46.1868 38.412C45.2722 38.9907 44.2362 39.28 43.0788 39.28ZM44.0588 36.592C45.1602 36.592 46.0468 36.2093 46.7188 35.444C47.3908 34.66 47.7268 33.484 47.7268 31.916C47.7268 30.348 47.3908 29.1813 46.7188 28.416C46.0468 27.6507 45.1602 27.268 44.0588 27.268C42.9575 27.268 42.0708 27.6507 41.3988 28.416C40.7268 29.1813 40.3908 30.348 40.3908 31.916C40.3908 33.484 40.7175 34.66 41.3708 35.444C42.0428 36.2093 42.9388 36.592 44.0588 36.592ZM53.4821 45.048V28.388C53.4821 27.8093 53.4635 27.2213 53.4261 26.624C53.3888 26.0267 53.3328 25.4387 53.2581 24.86H56.6461L56.9541 27.828H56.6461C56.9261 26.8387 57.5141 26.0547 58.4101 25.476C59.3248 24.8787 60.3795 24.58 61.5741 24.58C62.8248 24.58 63.9168 24.8787 64.8501 25.476C65.7835 26.0547 66.5115 26.8947 67.0341 27.996C67.5568 29.0787 67.8181 30.3853 67.8181 31.916C67.8181 33.4467 67.5568 34.7627 67.0341 35.864C66.5115 36.9653 65.7835 37.8147 64.8501 38.412C63.9168 38.9907 62.8248 39.28 61.5741 39.28C60.3981 39.28 59.3621 38.9907 58.4661 38.412C57.5701 37.8333 56.9728 37.0587 56.6741 36.088H56.9821V45.048H53.4821ZM60.5941 36.592C61.7141 36.592 62.6101 36.2093 63.2821 35.444C63.9541 34.66 64.2901 33.484 64.2901 31.916C64.2901 30.348 63.9541 29.1813 63.2821 28.416C62.6101 27.6507 61.7141 27.268 60.5941 27.268C59.4928 27.268 58.6061 27.6507 57.9341 28.416C57.2621 29.1813 56.9261 30.348 56.9261 31.916C56.9261 33.484 57.2621 34.66 57.9341 35.444C58.6061 36.2093 59.4928 36.592 60.5941 36.592ZM69.3454 45.048V28.388C69.3454 27.8093 69.3267 27.2213 69.2894 26.624C69.2521 26.0267 69.1961 25.4387 69.1214 24.86H72.5094L72.8174 27.828H72.5094C72.7894 26.8387 73.3774 26.0547 74.2734 25.476C75.1881 24.8787 76.2427 24.58 77.4374 24.58C78.6881 24.58 79.7801 24.8787 80.7134 25.476C81.6467 26.0547 82.3747 26.8947 82.8974 27.996C83.4201 29.0787 83.6814 30.3853 83.6814 31.916C83.6814 33.4467 83.4201 34.7627 82.8974 35.864C82.3747 36.9653 81.6467 37.8147 80.7134 38.412C79.7801 38.9907 78.6881 39.28 77.4374 39.28C76.2614 39.28 75.2254 38.9907 74.3294 38.412C73.4334 37.8333 72.8361 37.0587 72.5374 36.088H72.8454V45.048H69.3454ZM76.4574 36.592C77.5774 36.592 78.4734 36.2093 79.1454 35.444C79.8174 34.66 80.1534 33.484 80.1534 31.916C80.1534 30.348 79.8174 29.1813 79.1454 28.416C78.4734 27.6507 77.5774 27.268 76.4574 27.268C75.3561 27.268 74.4694 27.6507 73.7974 28.416C73.1254 29.1813 72.7894 30.348 72.7894 31.916C72.7894 33.484 73.1254 34.66 73.7974 35.444C74.4694 36.2093 75.3561 36.592 76.4574 36.592ZM92.0407 39.28C89.67 39.28 87.8127 38.6267 86.4687 37.32C85.1247 36.0133 84.4527 34.2213 84.4527 31.944C84.4527 30.4693 84.742 29.1813 85.3207 28.08C85.8994 26.9787 86.702 26.12 87.7287 25.504C88.774 24.888 89.9874 24.58 91.3687 24.58C92.7314 24.58 93.87 24.8693 94.7847 25.448C95.6994 26.0267 96.39 26.8387 96.8567 27.884C97.342 28.9293 97.5847 30.152 97.5847 31.552V32.476H87.2807V30.628H95.0927L94.6167 31.02C94.6167 29.7133 94.3367 28.7147 93.7767 28.024C93.2354 27.3333 92.442 26.988 91.3967 26.988C90.2394 26.988 89.3434 27.3987 88.7087 28.22C88.0927 29.0413 87.7847 30.1893 87.7847 31.664V32.028C87.7847 33.5587 88.158 34.7067 88.9047 35.472C89.67 36.2187 90.7434 36.592 92.1247 36.592C92.9274 36.592 93.674 36.4893 94.3647 36.284C95.074 36.06 95.746 35.7053 96.3807 35.22L97.4167 37.572C96.7447 38.1133 95.942 38.5333 95.0087 38.832C94.0754 39.1307 93.086 39.28 92.0407 39.28ZM104.537 39.28C103.305 39.28 102.213 38.9907 101.261 38.412C100.327 37.8147 99.5992 36.9653 99.0765 35.864C98.5539 34.7627 98.2925 33.4467 98.2925 31.916C98.2925 30.3853 98.5539 29.0787 99.0765 27.996C99.5992 26.8947 100.327 26.0547 101.261 25.476C102.213 24.8787 103.305 24.58 104.537 24.58C105.713 24.58 106.749 24.8693 107.645 25.448C108.559 26.008 109.166 26.7733 109.465 27.744H109.101V18.392H112.601V39H109.157V36.004H109.493C109.194 37.012 108.587 37.8147 107.673 38.412C106.777 38.9907 105.731 39.28 104.537 39.28ZM105.517 36.592C106.618 36.592 107.505 36.2093 108.177 35.444C108.849 34.66 109.185 33.484 109.185 31.916C109.185 30.348 108.849 29.1813 108.177 28.416C107.505 27.6507 106.618 27.268 105.517 27.268C104.415 27.268 103.519 27.6507 102.829 28.416C102.157 29.1813 101.821 30.348 101.821 31.916C101.821 33.484 102.157 34.66 102.829 35.444C103.519 36.2093 104.415 36.592 105.517 36.592ZM114.52 39V35.108H118.44V39H114.52ZM128.755 39.28C126.701 39.28 124.937 38.8693 123.463 38.048C122.007 37.208 120.887 36.032 120.103 34.52C119.319 32.9893 118.927 31.188 118.927 29.116C118.927 27.044 119.319 25.252 120.103 23.74C120.887 22.228 122.007 21.0613 123.463 20.24C124.937 19.4 126.701 18.98 128.755 18.98C130.136 18.98 131.377 19.176 132.479 19.568C133.599 19.96 134.56 20.5387 135.363 21.304L134.187 24.16C133.309 23.4507 132.46 22.9467 131.639 22.648C130.836 22.3307 129.912 22.172 128.867 22.172C126.869 22.172 125.339 22.7787 124.275 23.992C123.229 25.1867 122.707 26.8947 122.707 29.116C122.707 31.3373 123.229 33.0547 124.275 34.268C125.339 35.4813 126.869 36.088 128.867 36.088C129.912 36.088 130.836 35.9387 131.639 35.64C132.46 35.3227 133.309 34.8 134.187 34.072L135.363 36.928C134.56 37.6747 133.599 38.2533 132.479 38.664C131.377 39.0747 130.136 39.28 128.755 39.28ZM142.358 39.28C140.902 39.28 139.642 38.9813 138.578 38.384C137.514 37.7867 136.684 36.9373 136.086 35.836C135.508 34.7347 135.218 33.428 135.218 31.916C135.218 30.404 135.508 29.1067 136.086 28.024C136.684 26.9227 137.514 26.0733 138.578 25.476C139.642 24.8787 140.902 24.58 142.358 24.58C143.814 24.58 145.074 24.8787 146.138 25.476C147.221 26.0733 148.052 26.9227 148.63 28.024C149.228 29.1067 149.526 30.404 149.526 31.916C149.526 33.428 149.228 34.7347 148.63 35.836C148.052 36.9373 147.221 37.7867 146.138 38.384C145.074 38.9813 143.814 39.28 142.358 39.28ZM142.358 36.592C143.46 36.592 144.337 36.2093 144.99 35.444C145.644 34.66 145.97 33.484 145.97 31.916C145.97 30.348 145.644 29.1813 144.99 28.416C144.337 27.6507 143.46 27.268 142.358 27.268C141.257 27.268 140.38 27.6507 139.726 28.416C139.073 29.1813 138.746 30.348 138.746 31.916C138.746 33.484 139.073 34.66 139.726 35.444C140.38 36.2093 141.257 36.592 142.358 36.592Z" fill="#3D315B"/>
<defs>
<linearGradient id="paint0_linear_20_761" x1="26.3381" y1="18.051" x2="4.13469" y2="18.1763" gradientUnits="userSpaceOnUse">
<stop stop-color="#135CFF"/>
<stop offset="1" stop-color="#8611FE"/>
</linearGradient>
</defs>
</svg>
